<?xml version="1.0" encoding="UTF-8"?>
<svg id="Layer_2" data-name="Layer 2" xmlns="http://www.w3.org/2000/svg" viewBox="0 0 500 500">
  <defs>
    <style>
      .cls-1 {
        fill: #123456;
      }
    </style>
  </defs>
  <g id="Layer_1-2" data-name="Layer 1">
    <path class="cls-1" d="M491.08,229.8c-21.15-19.61-67.92-28.55-116.42-32.74.14-.16.28-.31.42-.47,20.53-24.31,41.42-50.1,53.92-80.07,3.37-8.5,6.63-19.58,4.93-29.5-2.08-13.72-13.7-21.84-27.1-21.51-28.82,1.09-68.21,27.83-105.46,59.16-1.56-21.27-4.04-42.42-8.71-63.66-2.46-10.79-5.38-21.33-9.84-31.7-3.62-8.39-9.16-18.53-17.37-24.35-11.17-8.23-25.13-5.75-34.37,3.96-19.61,21.15-28.55,67.92-32.74,116.42-.16-.14-.31-.28-.47-.42-24.31-20.53-50.1-41.42-80.07-53.92-8.5-3.37-19.58-6.63-29.5-4.93-13.72,2.08-21.84,13.7-21.51,27.11,1.07,28.26,26.79,66.67,57.33,103.28-20.85,1.82-41.63,4.65-62.29,9.13-10.86,2.58-21.44,5.61-31.88,10.19-8.52,3.75-18.91,9.57-24.8,18.01-7.74,10.56-6.48,24.19,2.13,33.74,20.53,22.14,71.38,30.09,117.02,33.26-13.66,16.22-26.53,33.13-38.13,51.14-5.86,9.5-11.2,19.13-15.33,29.75-3.37,8.67-6.6,20.14-4.8,30.27,2.28,14.33,14.37,22.84,28.43,22.43,30.25-1.25,69.85-30.26,103.2-59.3,1.82,21.13,4.67,42.18,9.2,63.12,2.58,10.86,5.61,21.44,10.19,31.88,3.75,8.52,9.57,18.91,18.01,24.8,10.56,7.74,24.19,6.48,33.74-2.13,22.14-20.53,30.09-71.38,33.26-117.02,16.22,13.66,33.13,26.53,51.14,38.13,9.5,5.86,19.13,11.2,29.75,15.33,8.67,3.37,20.14,6.6,30.27,4.8,14.33-2.28,22.84-14.37,22.43-28.43-1.28-30.92-31.55-71.59-61.22-105.39,21.58-1.55,43.02-4.04,64.57-8.78,10.79-2.46,21.33-5.38,31.7-9.84,8.39-3.62,18.53-9.16,24.35-17.37,8.23-11.17,5.75-25.13-3.96-34.37ZM473.72,248.66s-.03.07-.05.12c.02-.05.03-.09.05-.12ZM407.92,91.25s-.04-.09-.05-.12c.01.03.03.06.05.12ZM340.52,123.08c12.74-8.1,25.57-15.74,39.03-22.22,6.43-3.05,12.72-5.72,19.35-7.57,2.96-.79,6.55-1.46,9.17-1.24.09.8.07,2.02-.08,3.36-1.1,8.65-4.79,17.22-8.42,25.25-6.33,13.57-13.82,26.54-21.78,39.42-7.5,12.07-15.41,23.9-23.68,35.47-17.18-1.05-34.15-1.61-49.86-1.94-.28-12.71-.66-25.41-1.16-38.13-.1-2.14-.2-4.28-.3-6.42,12.29-9.07,24.86-17.75,37.72-25.98ZM294.78,249.37c-.03,6.12-.16,12.24-.35,18.36-4.14,4.34-8.33,8.64-12.59,12.87-4.34,4.31-8.76,8.54-13.22,12.73-6,.14-12,.22-18,.2-4.95-.02-9.91-.11-14.86-.24-4.99-4.69-9.93-9.44-14.78-14.27-4.06-4.04-8.05-8.12-12.01-12.25-.16-5.8-.25-11.59-.27-17.39-.01-5.72.05-11.44.17-17.15,3.99-4.21,8.02-8.38,12.11-12.49,4.04-4.06,8.12-8.05,12.25-12.01,5.8-.16,11.59-.25,17.39-.27,6.86-.02,13.72.07,20.58.25,3.58,3.45,7.14,6.92,10.65,10.45,4.31,4.34,8.54,8.76,12.73,13.22.14,6,.22,12,.2,18ZM286.26,208.25c2.46.12,4.92.25,7.38.39.14,2.46.27,4.92.38,7.38-2.58-2.59-5.17-5.18-7.77-7.77ZM270.98,193.13c-3.48-3.42-6.98-6.83-10.48-10.23,9.29-8.03,18.77-15.81,28.45-23.34,1.5,11.25,2.71,22.53,3.63,33.84-7.65-.12-14.89-.2-21.6-.27ZM255.37,192.95c-1.63-.02-3.22-.05-4.74-.08-.48,0-.97,0-1.45.01,1.02-.92,2.05-1.82,3.07-2.74,1.05.93,2.09,1.86,3.13,2.8ZM227.47,193.04c-5.57.03-11.14.07-16.71.11.87-11.49,2.03-22.96,3.45-34.39,9.01,6.89,17.85,14.02,26.49,21.36-4.65,4.51-9.08,8.84-13.24,12.91ZM211.48,208.65c-.27.26-.54.52-.8.78-.34.35-.68.69-1.02,1.04.03-.57.07-1.14.1-1.7.57-.03,1.15-.08,1.72-.11ZM194.42,225.91c-3.92,3.96-7.83,7.92-11.73,11.89-6.91-8.04-13.64-16.24-20.18-24.57,10.67-1.37,21.38-2.51,32.11-3.39-.08,5.61-.14,10.98-.2,16.07ZM194.15,248.25c0,.37-.01.75-.02,1.12,0,.48,0,.97.01,1.45-.38-.42-.75-.85-1.13-1.27.38-.43.76-.87,1.14-1.3ZM194.29,272.53c.04,6.14.07,12.28.12,18.43-10.87-.95-21.73-2.18-32.54-3.67,6.85-8.92,13.92-17.68,21.19-26.26,3.91,4.02,7.66,7.86,11.22,11.5ZM209.91,288.52c.26.27.52.54.78.8,1.03,1.01,2.06,2.03,3.09,3.04-1.21-.07-2.42-.15-3.64-.23-.08-1.2-.16-2.41-.23-3.61ZM225.17,303.6c5.04,4.98,10.07,9.96,15.12,14.92-8.36,7.02-16.9,13.82-25.61,20.42-1.54-11.78-2.79-23.6-3.73-35.44,4.74.04,9.48.08,14.22.11ZM247.08,303.66c3.46,0,6.92-.03,10.38-.04-1.73,1.55-3.48,3.08-5.22,4.62-1.72-1.52-3.44-3.04-5.15-4.58ZM273.16,303.51c6.41-.06,12.83-.15,19.24-.25-.98,11.65-2.26,23.28-3.86,34.87-9.43-7.24-18.67-14.73-27.72-22.44,4.12-4.05,8.23-8.11,12.34-12.17ZM283.98,292.77c3.28-3.27,6.56-6.55,9.83-9.83-.17,3.11-.37,6.22-.58,9.33-3.08.19-6.17.36-9.25.5ZM304.88,271.75c4.5-4.57,8.98-9.15,13.44-13.76,8.12,9.61,15.99,19.45,23.55,29.51-12.33,1.67-24.72,2.99-37.13,3.96.06-6.57.11-13.15.14-19.72ZM304.91,256.47c0-4.64-.02-9.28-.04-13.92,2.09,2.33,4.16,4.68,6.21,7.03-2.04,2.31-4.1,4.61-6.18,6.89ZM304.77,226.84c-.06-5.83-.13-11.66-.22-17.49,12.27.89,24.5,2.09,36.69,3.62-7.28,9.52-14.82,18.83-22.61,27.94-4.61-4.7-9.23-9.39-13.86-14.07ZM250.04,26.34c-.05-.02-.09-.03-.12-.05.03,0,.07.03.12.05ZM224.89,96.5c3.28-14.74,6.95-29.21,11.89-43.31,2.38-6.7,4.95-13.04,8.33-19.03,1.54-2.65,3.6-5.67,5.61-7.36.62.5,1.48,1.38,2.32,2.43,5.34,6.9,8.79,15.57,11.9,23.81,5.12,14.07,9,28.54,12.47,43.27,3.23,13.84,6,27.79,8.33,41.83-12.87,11.39-25.25,22.98-36.58,33.84-10.73-10.25-21.58-20.39-32.59-30.36,2.27-15.13,5.04-30.18,8.31-45.11ZM92.5,92.08s-.09.04-.12.05c.03-.01.06-.03.12-.05ZM124.34,159.48c-8.1-12.74-15.74-25.57-22.22-39.03-3.05-6.43-5.72-12.72-7.57-19.35-.79-2.96-1.46-6.55-1.24-9.17.8-.09,2.02-.07,3.36.08,8.65,1.1,17.22,4.79,25.25,8.42,13.57,6.33,26.54,13.82,39.42,21.78,12.07,7.5,23.9,15.41,35.47,23.68-1,16.3-1.55,32.41-1.89,47.44-15.48.22-30.95.62-46.39,1.44-8.43-11.51-16.51-23.27-24.2-35.29ZM28.71,248.19s0,0,0,0c-.08-.14-.03-.15,0,0ZM28.72,250.66s-.01.02,0,0h0ZM68.63,267.25c-9.25-2.88-18.28-6.04-26.94-10.18-3.99-2.02-8.85-4.49-11.89-7.63,1.62-1.61,3.91-3.16,6.25-4.51,5.86-3.34,12.35-5.97,18.79-8.28,14.03-4.96,28.43-8.68,43.11-12.03,14.32-3.23,28.76-6,43.28-8.32,10.23,11.49,20.58,22.57,30.38,32.82-11.04,11.35-21.93,22.83-32.48,34.61-23.81-4.15-47.38-9.61-70.49-16.49ZM92.88,405.46c-.16-.04-.13-.08,0,0h0ZM94.63,407.2s0,.02,0,0h0ZM134.58,390.71c-8.58,4.5-17.2,8.66-26.25,11.85-4.25,1.39-9.43,3.08-13.8,3.02,0-2.28.53-4.99,1.23-7.61,1.79-6.5,4.51-12.95,7.44-19.14,6.41-13.43,13.97-26.24,21.98-38.99,8.09-12.81,16.63-25.37,25.56-37.65,14.34.56,27.25.78,37.33,1.04,2.16.03,4.33.05,6.49.08.22,16.42.63,32.83,1.53,49.21-19.77,13.91-40.3,26.71-61.5,38.19ZM249.45,471.29s0,0,0,0c-.14.08-.15.03,0,0ZM251.92,471.28s.02.01,0,0h0ZM268.51,431.37c-2.88,9.25-6.04,18.28-10.18,26.94-2.02,3.99-4.49,8.85-7.63,11.89-1.61-1.62-3.16-3.91-4.51-6.25-3.34-5.86-5.97-12.35-8.28-18.79-4.96-14.03-8.68-28.43-12.03-43.11-3.34-14.79-6.18-29.7-8.55-44.7,10.38-9.61,19.64-18.54,27.13-25.66,1.55-1.51,3.09-3.03,4.64-4.54,11.77,11.46,23.67,22.77,35.88,33.72-4.15,23.81-9.61,47.38-16.49,70.49ZM406.72,407.12s0,0,0,0c-.04.16-.08.13,0,0ZM408.45,405.37s.02,0,0,0h0ZM391.97,365.42c4.5,8.58,8.66,17.2,11.85,26.25,1.39,4.25,3.08,9.43,3.02,13.8-2.28,0-4.99-.53-7.61-1.23-6.5-1.79-12.95-4.51-19.14-7.44-13.43-6.41-26.24-13.97-38.99-21.98-12.81-8.09-25.37-16.63-37.65-25.56.56-14.34.78-27.25,1.04-37.33.04-2.97.07-5.93.11-8.9,13.3-.29,26.61-.68,39.92-1.2,2.51-.11,5.02-.23,7.53-.35,14.58,20.52,27.96,41.86,39.92,63.94ZM470.77,251.78c-6.9,5.34-15.57,8.79-23.81,11.9-14.07,5.12-28.54,9-43.27,12.47-14.28,3.34-28.69,6.18-43.17,8.56-10.32-11.21-19.97-21.2-27.56-29.19-2.06-2.11-4.12-4.21-6.18-6.32,10.68-11.16,21.23-22.44,31.61-33.89,15.13,2.27,30.18,5.04,45.11,8.31,14.74,3.28,29.21,6.95,43.31,11.89,6.7,2.38,13.04,4.95,19.03,8.33,2.65,1.54,5.67,3.6,7.36,5.61-.5.62-1.38,1.48-2.43,2.32Z"/>
  </g>
</svg>